# xmcd
#
# Track frame offsets:
#	150
#	29166
#	48083
#	69963
#	99440
#	119864
#	124879
#	138938
#	159316
#	193251
#
# Disc length: 4000 seconds
#
# Revision: 3
# Processed by: cddbd v1.5.2PL0 Copyright (c) Steve Scherf et al.
# Submitted via: EZCDAudioConverter 2.1.7.1
#
DISCID=8f0f9e0a
DTITLE=V/A - Real World Notes V15
DYEAR=1900
DGENRE=
TTITLE0=Peter Gabriel - More Than This [Live In Paris]
TTITLE1=Sevara Nazarkhan - Yor-Yor
TTITLE2=Ayub Ogada - Oombe
TTITLE3=Afro Celts - Wulaba
TTITLE4=Abdelli - Asiram
TTITLE5=Michael Brook - Memories
TTITLE6=Peadar Ó Riada - Sport
TTITLE7=Martyn Bennett - Rant
TTITLE8=Adrian Sherwood - Boogaloo [Drowning Not Raving Mix]
TTITLE9=Various Artist - Interactive Track
EXTD=
EXTT0=
EXTT1=
EXTT2=
EXTT3=
EXTT4=
EXTT5=
EXTT6=
EXTT7=
EXTT8=
EXTT9=
PLAYORDER=
